<svg width="20" height="20" viewBox="0 0 20 20" fill="none" xmlns="http://www.w3.org/2000/svg">
<path d="M19 10.2064C19 9.5947 18.9494 8.97965 18.8414 8.37784H10.1813V11.8432H15.1406C14.9348 12.9609 14.2735 13.9496 13.3053 14.5779V16.8264H16.264C18.0014 15.2591 19 12.9444 19 10.2064Z" fill="#4285F4"/>
<path d="M10.1813 18.9989C12.6576 18.9989 14.7458 18.202 16.2673 16.8264L13.3087 14.5779C12.4855 15.1268 11.4228 15.4376 10.1847 15.4376C7.78942 15.4376 5.75849 13.8537 5.02979 11.7242H1.97665V14.0422C3.53527 17.081 6.70985 18.9989 10.1813 18.9989V18.9989Z" fill="#34A853"/>
<path d="M5.02642 11.7242C4.64183 10.6066 4.64183 9.39631 5.02642 8.27865V5.96066H1.97667C0.674445 8.50351 0.674445 11.4994 1.97667 14.0422L5.02642 11.7242V11.7242Z" fill="#FBBC04"/>
<path d="M10.1813 4.56191C11.4903 4.54207 12.7554 5.02485 13.7034 5.91104L16.3247 3.34174C14.6649 1.81405 12.4619 0.974153 10.1813 1.00061C6.70985 1.00061 3.53527 2.91849 1.97665 5.96064L5.02641 8.27863C5.75174 6.14581 7.78604 4.56191 10.1813 4.56191V4.56191Z" fill="#EA4335"/>
</svg>
