<svg width="20" height="20" viewBox="0 0 20 20" fill="none" xmlns="http://www.w3.org/2000/svg">
<path d="M17.9442 5.54165C17.9569 5.73609 17.9569 5.93057 17.9569 6.125C17.9569 12.0555 13.8326 18.8889 6.29444 18.8889C3.97209 18.8889 1.81473 18.1527 0 16.875C0.329962 16.9167 0.64719 16.9306 0.989848 16.9306C2.90607 16.9306 4.67006 16.2222 6.0787 15.0139C4.27666 14.9722 2.7665 13.6806 2.24618 11.9028C2.50001 11.9444 2.7538 11.9722 3.02032 11.9722C3.38833 11.9722 3.75638 11.9166 4.099 11.8195C2.22083 11.4028 0.812152 9.59722 0.812152 7.41666V7.36113C1.35782 7.69446 1.99239 7.90279 2.66493 7.93054C1.56087 7.12497 0.837542 5.74998 0.837542 4.19442C0.837542 3.3611 1.04055 2.59721 1.3959 1.93054C3.41369 4.65276 6.44671 6.43051 9.8477 6.62498C9.78426 6.29165 9.74617 5.94446 9.74617 5.59723C9.74617 3.12498 11.5736 1.11111 13.8452 1.11111C15.0254 1.11111 16.0914 1.65278 16.8401 2.52778C17.7665 2.33335 18.6548 1.95833 19.4416 1.44445C19.137 2.48614 18.4898 3.36114 17.6396 3.91666C18.4645 3.81948 19.264 3.56943 20 3.22224C19.4417 4.11109 18.7437 4.90273 17.9442 5.54165Z" fill="#1DA1F2"/>
</svg>
