<svg width="20" height="20" viewBox="0 0 20 20" fill="none" xmlns="http://www.w3.org/2000/svg">
<path d="M15.3565 0H13.6297C13.4768 0 13.3814 0.0734482 13.3593 0.18026C13.3374 0.287552 10.77 7.96193 10.5833 8.60124C10.451 9.05429 10.0197 10.6522 9.91616 11.0358L9.02324 8.64589C8.80644 7.98821 6.72668 2.29262 6.66584 2.06507C6.63229 1.94002 6.57353 1.78448 6.34988 1.78448H4.6643C4.49928 1.78448 4.40637 1.96186 4.45938 2.07179C4.50198 2.15964 7.54676 10.1011 8.77694 13.135V19.8053C8.77694 19.9272 8.82651 20 8.9504 20H10.547C10.646 20 10.7203 19.9272 10.7203 19.8053V13.1874C11.7454 10.3797 15.4911 0.392444 15.5318 0.280591C15.5814 0.143776 15.5667 0 15.3565 0Z" fill="#FF0000"/>
</svg>
